HIERARCHY
ROOT hip
{
  OFFSET 0 0 0
  CHANNELS 6 Xposition Yposition Zposition Zrotation Yrotation Xrotation
  JOINT abdomen
  {
    OFFSET 0 20.6881 -0.73152
    CHANNELS 3 Zrotation Xrotation Yrotation
    JOINT chest
    {
      OFFSET 0 11.7043 -0.48768
      CHANNELS 3 Zrotation Xrotation Yrotation
      JOINT neck
      {
        OFFSET 0 22.1894 -2.19456
        CHANNELS 3 Zrotation Xrotation Yrotation
        JOINT head
        {
          OFFSET -0.24384 7.07133 1.2192
          CHANNELS 3 Zrotation Xrotation Yrotation
          JOINT leftEye
          {
            OFFSET 4.14528 8.04674 8.04672
            CHANNELS 3 Zrotation Xrotation Yrotation
            End Site
            {
              OFFSET 1 0 0
            }
          }
          JOINT rightEye
          {
            OFFSET -3.6576 8.04674 8.04672
            CHANNELS 3 Zrotation Xrotation Yrotation
            End Site
            {
              OFFSET 1 0 0
            }
          }
        }
      }
      JOINT rCollar
      {
        OFFSET -2.68224 19.2634 -4.8768
        CHANNELS 3 Zrotation Xrotation Yrotation
        JOINT rShldr
        {
          OFFSET -8.77824 -1.95073 1.46304
          CHANNELS 3 Zrotation Xrotation Yrotation
          JOINT rForeArm
          {
            OFFSET -28.1742 -1.7115 0.48768
            CHANNELS 3 Zrotation Xrotation Yrotation
            JOINT rHand
            {
              OFFSET -22.5879 0.773209 7.07136
              CHANNELS 3 Zrotation Xrotation Yrotation
              JOINT rThumb1
              {
                OFFSET -1.2192 -0.487915 3.41376
                CHANNELS 3 Zrotation Xrotation Yrotation
                JOINT rThumb2
                {
                  OFFSET -3.37035 -0.52449 3.41376
                  CHANNELS 3 Zrotation Xrotation Yrotation
                  End Site
                  {
                    OFFSET -1.78271 -1.18214 1.43049
                  }
                }
              }
              JOINT rIndex1
              {
                OFFSET -7.75947 0.938293 5.60832
                CHANNELS 3 Zrotation Xrotation Yrotation
                JOINT rIndex2
                {
                  OFFSET -2.54057 -0.884171 1.56538
                  CHANNELS 3 Zrotation Xrotation Yrotation
                  End Site
                  {
                    OFFSET -1.62519 -0.234802 1.16502
                  }
                }
              }
              JOINT rMid1
              {
                OFFSET -8.24714 1.18213 3.41376
                CHANNELS 3 Zrotation Xrotation Yrotation
                JOINT rMid2
                {
                  OFFSET -3.10165 -0.590103 1.0647
                  CHANNELS 3 Zrotation Xrotation Yrotation
                  End Site
                  {
                    OFFSET -2.48547 -0.328903 0.83742
                  }
                }
              }
              JOINT rRing1
              {
                OFFSET -8.82822 0.546677 1.51678
                CHANNELS 3 Zrotation Xrotation Yrotation
                JOINT rRing2
                {
                  OFFSET -2.60934 -0.819778 -0.0198488
                  CHANNELS 3 Zrotation Xrotation Yrotation
                  End Site
                  {
                    OFFSET -2.33842 -0.294052 0.168128
                  }
                }
              }
              JOINT rPinky1
              {
                OFFSET -8.27202 -0.0477905 -0.4584
                CHANNELS 3 Zrotation Xrotation Yrotation
                JOINT rPinky2
                {
                  OFFSET -1.82734 -0.647385 -0.700984
                  CHANNELS 3 Zrotation Xrotation Yrotation
                  End Site
                  {
                    OFFSET -1.69225 -0.51767 -0.607171
                  }
                }
              }
            }
          }
        }
      }
      JOINT lCollar
      {
        OFFSET 2.68224 19.2634 -4.8768
        CHANNELS 3 Zrotation Xrotation Yrotation
        JOINT lShldr
        {
          OFFSET 8.77824 -1.95073 1.46304
          CHANNELS 3 Zrotation Xrotation Yrotation
          JOINT lForeArm
          {
            OFFSET 28.1742 -1.7115 0.48768
            CHANNELS 3 Zrotation Xrotation Yrotation
            JOINT lHand
            {
              OFFSET 22.5879 0.773209 7.07136
              CHANNELS 3 Zrotation Xrotation Yrotation
              JOINT lThumb1
              {
                OFFSET 1.2192 -0.487915 3.41376
                CHANNELS 3 Zrotation Xrotation Yrotation
                JOINT lThumb2
                {
                  OFFSET 3.37035 -0.52449 3.41376
                  CHANNELS 3 Zrotation Xrotation Yrotation
                  End Site
                  {
                    OFFSET 1.78271 -1.18214 1.43049
                  }
                }
              }
              JOINT lIndex1
              {
                OFFSET 7.75947 0.938293 5.60832
                CHANNELS 3 Zrotation Xrotation Yrotation
                JOINT lIndex2
                {
                  OFFSET 2.54057 -0.884171 1.56538
                  CHANNELS 3 Zrotation Xrotation Yrotation
                  End Site
                  {
                    OFFSET 1.62519 -0.234802 1.16502
                  }
                }
              }
              JOINT lMid1
              {
                OFFSET 8.24714 1.18213 3.41376
                CHANNELS 3 Zrotation Xrotation Yrotation
                JOINT lMid2
                {
                  OFFSET 3.10165 -0.590103 1.0647
                  CHANNELS 3 Zrotation Xrotation Yrotation
                  End Site
                  {
                    OFFSET 2.48547 -0.328903 0.83742
                  }
                }
              }
              JOINT lRing1
              {
                OFFSET 8.82822 0.546677 1.51678
                CHANNELS 3 Zrotation Xrotation Yrotation
                JOINT lRing2
                {
                  OFFSET 2.60934 -0.819778 -0.0198488
                  CHANNELS 3 Zrotation Xrotation Yrotation
                  End Site
                  {
                    OFFSET 2.33842 -0.294052 0.168128
                  }
                }
              }
              JOINT lPinky1
              {
                OFFSET 8.27202 -0.0477905 -0.4584
                CHANNELS 3 Zrotation Xrotation Yrotation
                JOINT lPinky2
                {
                  OFFSET 1.82734 -0.647385 -0.700984
                  CHANNELS 3 Zrotation Xrotation Yrotation
                  End Site
                  {
                    OFFSET 1.69225 -0.51767 -0.607171
                  }
                }
              }
            }
          }
        }
      }
    }
  }
  JOINT rButtock
  {
    OFFSET -8.77824 4.35084 1.2192
    CHANNELS 3 Zrotation Xrotation Yrotation
    JOINT rThigh
    {
      OFFSET 0 -1.70687 -2.19456
      CHANNELS 3 Zrotation Xrotation Yrotation
      JOINT rShin
      {
        OFFSET 0 -36.8199 0.73152
        CHANNELS 3 Zrotation Xrotation Yrotation
        JOINT rFoot
        {
          OFFSET 0.73152 -45.1104 -5.12064
          CHANNELS 3 Zrotation Xrotation Yrotation
          End Site
          {
            OFFSET -1.1221 -3.69964 12.103
          }
        }
      }
    }
  }
  JOINT lButtock
  {
    OFFSET 8.77824 4.35084 1.2192
    CHANNELS 3 Zrotation Xrotation Yrotation
    JOINT lThigh
    {
      OFFSET 0 -1.70687 -2.19456
      CHANNELS 3 Zrotation Xrotation Yrotation
      JOINT lShin
      {
        OFFSET 0 -36.8199 0.73152
        CHANNELS 3 Zrotation Xrotation Yrotation
        JOINT lFoot
        {
          OFFSET -0.73152 -45.1104 -5.12064
          CHANNELS 3 Zrotation Xrotation Yrotation
          End Site
          {
            OFFSET 1.1221 -3.69964 12.103
          }
        }
      }
    }
  }
}
MOTION
Frames:	8
Frame Time:	0.03333
-154.3454 70.5585 133.0795 173.312374 -21.555817 -170.251987 2.501178 1.334764 0.045955 -1.49856 -11.040471 10.477881 -10.010202 7.728708 -36.654976 7.341517 -4.071775 8.053424 0.000546 -0.0 -0.002562 0.000848 0.0 0.003153 -155.614152 -4.23627 161.99141 135.016027 -5.656881 -147.604972 -3.178846 22.217754 63.973344 -6.402015 18.146693 0.17173 -2.81481 2.753838 0.498107 41.730491 -62.159869 -15.022505 -151.354385 -17.157835 121.13363 -62.154096 57.361399 46.045039 173.123375 -66.297775 137.614122 -163.524947 -4.951519 143.085977 -145.123078 1.080472 -179.467655 -154.489158 71.867515 169.599863 -10.079269 -20.711635 -9.54083 -84.900764 -53.826008 -84.832252 142.973678 39.431603 -147.390015 -21.42334 15.368629 3.550749 160.999947 -45.362972 39.771036 2.159712 6.239677 0.200065 68.482398 37.954613 -35.659158 -35.217933 -31.470919 -16.654479 -15.558585 -27.950581 5.751681 -5.081377 13.391617 -1.426101 -2.100651 -6.305325 1.081519 7.330021 26.193033 -6.028435 145.112511 -0.626802 178.929893 -12.07283 51.121349 2.974548 139.225077 -4.396933 136.390501 -2.321352 -0.786067 2.176182 -179.981728 75.750964 -0.012502 124.322511 1.75192 0.898839 165.866403 33.541101 74.697952 27.801548 0.583187 139.159348 -179.990688 75.748634 -0.007661 171.036631 63.724594 -90.130099 -32.335436 4.899407 87.509966 -0.705744 -13.636937 4.714825
-155.958 69.66170000000001 135.4226 172.068238 -21.061597 -169.590332 1.326559 1.041416 0.031159 -3.108888 -11.566125 13.18499 -9.257871 22.148591 -130.822022 14.086653 16.497571 99.315183 0.001193 -0.0 -0.003943 0.001635 0.0 0.002179 -155.504873 -3.514599 161.838117 132.675513 -5.054131 -142.738318 177.799102 -30.555514 86.804064 171.279374 -18.088899 143.459959 9.389627 -9.381289 -0.682838 -132.472297 -25.853005 119.082266 73.419808 -73.57139 26.563742 -156.036652 -14.583814 115.482735 0.541081 -1.589839 -0.296213 -1.314182 12.638465 2.16788 -74.39049 -72.134285 -91.483491 -149.845644 -26.921418 -179.886828 -149.196571 25.858318 -145.26489 -22.975754 -37.9808 -24.192516 -2.526571 -18.843991 3.787107 -137.399514 -71.255117 -138.096873 173.162029 30.925239 54.602972 7.372411 22.584302 -0.665985 94.519135 37.865186 -54.092289 124.58226 -16.275311 -75.182452 -10.211024 -18.050763 4.56457 -2.816927 14.762559 -2.476567 160.939497 -7.488006 -143.367158 3.350496 17.311053 -3.699263 70.380639 -72.129446 87.280425 150.625692 -14.782652 -178.207432 80.941174 -51.22902 79.359027 -2.259627 -2.983723 1.924402 -179.99957 75.750554 -0.000353 127.58239 0.77365 -90.595373 -137.525354 12.543674 42.803673 -33.406661 -69.064494 55.662178 179.998769 75.751441 -0.0 173.561175 62.1554 -63.664773 -40.899524 25.708952 -100.515096 -123.380895 18.266034 -169.043673
-157.1079 68.94890000000001 137.4069 170.65584 -21.576562 -168.636698 -0.073097 0.608161 -0.00227 -4.537934 -12.074845 14.786767 6.95244 14.092034 99.419363 -10.3153 13.923915 -130.367192 -0.001343 -0.0 0.003104 -0.001717 0.0 -0.003217 -151.261776 17.58978 156.535257 117.671147 -0.188262 -159.4683 -115.408004 -0.749853 132.263106 87.213527 -74.42333 70.167128 -14.736348 13.585278 3.96681 -145.387955 -49.441958 110.287262 -117.258368 28.442945 99.151978 -120.10863 44.589833 92.896328 -150.788102 19.327206 137.028165 2.467171 2.444838 0.676727 -75.945788 -72.110752 -93.113454 14.729555 0.854391 -4.556598 -143.939955 8.264914 -140.719633 -153.306708 29.744785 -145.0877 44.039903 64.186989 -46.710571 5.198062 -44.290972 13.072955 2.433597 -5.404262 -127.320207 5.425811 16.849391 -0.192281 7.758652 7.439186 -1.681096 133.040689 -33.960858 -113.149451 153.455292 -21.067652 -121.743256 171.105197 -34.980844 -117.740403 89.835006 60.702632 -81.263096 2.469251 15.882796 -3.128422 145.121136 1.973208 179.749374 -10.061283 -0.124513 9.007572 19.184603 -32.413169 18.379652 -15.959691 43.878257 -8.428667 179.974827 75.750159 0.020712 133.413942 0.583129 -89.935514 -139.683324 21.29139 -103.430798 -118.518125 -7.575022 -179.798767 -0.002898 0.000337 -0.004347 -2.892677 -15.485839 -10.716464 21.975453 43.923567 93.946553 -175.469837 4.446762 102.092248
-157.8725 68.3518 138.9796 170.371004 -23.3128 -167.853793 0.554686 -4.683987 -153.438463 9.213068 4.007908 169.798618 -13.723379 16.753789 -92.773499 13.773184 9.63617 62.939882 -0.002549 -0.0 0.001232 0.003167 0.0 0.000883 -85.536979 68.182447 88.689039 86.98593 -19.770137 135.202577 143.801265 -47.046367 66.673246 -173.238707 14.767843 141.377812 71.831267 -48.263744 25.791555 -55.059679 32.201811 19.652805 5.921525 -10.174547 -2.968525 18.783749 -8.652117 -1.571736 -6.645739 17.108919 4.326174 -7.251628 26.204777 6.0392 -0.009486 -0.831158 -0.262516 6.214481 33.725256 5.592525 -124.852363 -29.038163 -122.620711 -13.620553 -30.061819 -16.265736 142.973877 39.431676 -147.390149 116.166826 -79.130904 136.69513 1.827696 -12.244052 -125.875612 5.803478 13.844976 0.314446 169.572062 -7.253917 -89.929445 19.327626 -40.077935 -4.941506 -159.639427 -69.972826 -102.394869 -2.343457 22.773193 1.855256 17.369122 35.632585 -12.95321 85.844552 64.201709 -77.823696 145.061977 -3.309456 178.08657 54.392861 87.573081 -67.875101 8.191253 -17.575809 7.729601 42.779351 -50.940771 43.36296 0.005593 0.000415 0.005593 -68.748613 -44.689174 -62.064251 136.82776 49.09806 -26.670698 82.742871 79.826375 -171.369926 -0.000602 0.000415 0.000774 -2.781756 -18.418561 -0.932006 33.098273 40.536325 73.08954 -26.212662 22.684975 -101.287177
-158.3521 67.8386 140.171 171.255549 -25.85682 -167.674949 -0.059097 -1.046468 -3.23241 -5.19198 -12.158311 19.666126 -13.527022 10.805217 -63.121634 10.826387 5.372178 34.630084 0.003133 0.0 0.005204 0.002818 -0.0 -0.000354 -9.651752 34.836072 11.199776 73.608569 3.059219 84.529164 -21.710583 52.561131 73.162378 -3.953631 -10.000615 -3.009098 -171.706064 -9.388211 89.950335 -126.98635 12.655109 61.45731 -123.870132 22.789054 104.45626 -12.161305 30.09996 1.671098 -139.240381 37.933184 127.556232 13.465154 -29.98157 -1.052831 -31.712432 -66.10784 -46.286594 13.019879 29.792023 0.903212 -145.545501 13.245338 -142.147015 34.892791 74.521117 -0.601566 59.836347 -86.720808 81.63707 -46.207974 -55.886533 -31.888484 177.295319 -3.949101 55.52753 9.148953 18.066907 0.104739 5.595274 5.416819 -1.116087 19.929886 17.335433 -20.307086 46.207372 39.653599 -36.318091 102.51772 46.778498 -77.143605 0.22099 0.638201 -0.123067 7.301264 26.198211 -6.025463 145.124371 1.122236 179.479311 150.426154 -35.136152 173.02142 -5.71166 17.040544 -5.128341 -7.580517 16.998706 -4.324518 -0.000662 0.000739 -0.001323 -57.80486 -46.825589 -65.337204 121.843961 76.874592 -91.284525 178.889063 -33.862859 56.427935 179.982035 75.748902 0.014781 173.846013 52.251727 166.254266 -13.617567 -46.122896 -151.087759 131.312034 -40.391637 22.371867
-158.77870000000001 67.4399 141.0954 172.403306 -28.807344 -167.821039 -0.413784 -6.56888 178.266138 5.134287 6.656563 -161.776581 -7.085844 2.836116 -10.737648 4.729413 2.231351 -16.514479 -0.003722 0.0 -0.000387 0.002002 -0.0 -0.000545 1.990269 -14.052767 -2.882662 -72.545234 8.886129 147.575102 129.244627 84.846096 135.554755 -175.054686 0.382911 142.411748 51.060766 -41.203286 12.856888 -152.917159 -47.377373 136.107309 -83.73197 42.331084 69.990386 0.681638 8.703611 -3.192047 6.533884 -20.414798 -2.718074 3.021044 0.395165 0.041486 0.000773 0.022536 0.007656 10.313363 0.235372 -0.037237 -148.070387 21.785233 -144.326258 -155.627448 36.317674 -145.927153 155.614056 -4.236629 -161.990359 -18.157085 25.790806 -0.98811 89.017827 50.394874 104.921903 -48.396946 -71.577048 -33.044049 4.034642 3.931731 -0.754295 5.473082 6.553606 -7.097684 -37.217622 -57.917224 0.642262 151.392197 -6.020818 -113.426247 141.109412 35.60168 -129.175246 -2.959111 1.192535 -0.458101 -0.006071 1.686805 -0.52876 -10.971386 -13.797071 1.71176 25.538196 -38.086261 24.601195 155.613403 43.701691 148.810639 0.002256 -0.000661 0.001128 -46.591488 -48.034682 -138.681816 -85.644341 18.530998 167.580063 -78.393295 -59.164293 -160.562932 0.002256 -0.000661 0.001128 -3.739253 -24.939502 -116.568811 -51.655173 -8.078489 0.682504 176.94433 9.043933 -99.52
-159.1603 66.9933 141.9862 172.861219 -31.884998 -168.00664 0.471664 -3.284367 -58.181842 4.670069 -10.606042 74.034671 -12.172047 6.988554 -55.373018 8.926914 8.523173 30.715754 -0.002551 0.0 -0.00213 0.003276 0.0 0.003117 -22.153576 52.541124 24.344317 75.891985 -10.51822 95.607751 155.886333 -40.275916 49.222803 -167.84615 17.262742 138.920347 -12.926177 12.051481 3.310942 50.41779 -59.20095 -6.7856 -13.870606 18.814859 9.291883 -173.013029 -26.22757 108.956981 173.121565 -66.297581 137.612503 0.339417 7.627157 1.451413 -0.015193 -1.323126 -0.416034 -156.223777 -46.649681 177.616171 9.90788 32.238294 8.582979 -160.345873 55.492505 -149.752353 28.502385 57.371817 -30.875435 -90.156213 -87.670709 -89.605025 38.24982 -25.959645 -137.644474 -41.92753 -71.59708 -26.675596 103.198955 36.330613 -60.111571 -23.497316 -32.095488 -24.538162 46.209186 39.652364 -36.318551 162.800154 -8.556027 -112.062965 36.035258 51.72362 -29.831435 147.955316 31.552202 -134.439046 0.020788 -1.72441 0.541533 -8.713255 18.556867 -2.573913 8.190587 -17.57565 7.73075 -3.708273 2.48056 -0.701582 -179.995467 75.748361 -0.003729 153.046639 19.758627 -123.616528 -81.621711 -21.850073 -103.429045 96.467915 3.896795 173.687405 0.000834 -0.001202 -0.001072 -7.019855 -26.088252 84.113542 53.601819 -23.820275 -5.720776 -36.552743 27.931013 -80.839055
-159.6489 66.41709999999999 142.9921 173.356612 -34.76508 -168.225919 -0.765165 -6.413107 -133.179512 8.093668 0.123196 146.96548 5.379222 3.623334 62.869833 -1.137424 4.021742 -85.910274 0.000451 0.0 0.004203 0.00049 -0.0 -0.003457 -159.221737 -48.725197 170.566482 -74.626984 -23.846348 -86.559923 -103.054172 -13.828541 -32.687595 28.044842 -71.923876 13.325743 -94.791102 37.828056 54.284073 -84.296757 -4.093745 60.024172 60.461143 -70.52388 15.710009 -0.005428 24.824618 1.878487 2.099883 -6.305534 -1.080393 84.325457 -78.250702 55.700782 -145.118454 0.227019 -179.198723 -154.172128 -12.523387 -177.50308 -145.173581 12.06762 -141.822857 46.429079 79.977924 -10.113018 155.809017 -5.555384 -162.266992 154.767213 -0.815312 -179.368284 179.412005 -13.649009 -16.726668 176.121385 1.119188 -142.546773 -81.972166 -50.091297 -32.722397 14.350584 -42.619489 30.646403 -10.28193 -18.182585 4.585298 -4.168227 13.095775 -1.899884 36.036776 51.722593 -29.833304 173.249898 -34.793283 -143.739841 -0.003749 1.854566 -0.581569 156.622226 -42.779179 -177.028237 140.596051 -1.002308 137.665724 -3.929003 3.507901 0.910323 -179.993637 75.748894 -0.005615 153.514344 24.331316 -0.0 15.98977 63.207361 20.74251 -160.5686 15.003042 64.735382 0.009739 -0.001013 0.004869 -8.520234 -28.187167 100.116703 59.236997 -31.460499 82.880417 80.512265 17.884896 151.426302
